<svg width="115" height="88" viewBox="0 0 115 88" fill="none" xmlns="http://www.w3.org/2000/svg">
<path d="M0.582558 8.54418C0.267438 3.92242 3.93154 0 8.56403 0H48.0557C51.0859 0 53.856 1.71202 55.2111 4.42229L56.7889 7.57771C58.144 10.288 60.9141 12 63.9443 12H107C111.418 12 115 15.5817 115 20V80C115 84.4183 111.418 88 107 88H13.4731C9.26606 88 5.77783 84.7415 5.49165 80.5442L0.582558 8.54418Z" fill="#677FFF"/>
<rect x="6" y="16" width="109" height="72" rx="8" fill="#2540D4"/>
<rect x="52" y="33" width="16" height="38" rx="4" fill="white"/>
<rect x="78" y="44" width="16" height="36" rx="4" transform="rotate(90 78 44)" fill="white"/>
</svg>
